<?xml version="1.0" encoding="UTF-8"?>
<svg id="Capa_2" data-name="Capa 2" xmlns="http://www.w3.org/2000/svg" viewBox="0 0 248 157.38">
  <defs>
    <style>
      .cls-1 {
        fill: #c5c6c7;
      }
    </style>
  </defs>
  <g id="Capa_1-2" data-name="Capa 1">
    <path class="cls-1" d="M89.4,0c2.77.64,5.59,1.1,8.28,1.97,1.85.6,3.65,1.57,5.23,2.71,1.67,1.2,1.82,3.22.57,4.31-1.49,1.29-2.91.94-4.19-.39-.33-.34-.62-.72-.94-1.08-3.09-3.44-7.11-2.77-8.26,1.73-.97,3.8-1.06,7.83-1.4,11.77-.04.41.89,1.27,1.4,1.29,2.06.1,4.12-.06,6.18-.1.95-.02,2.03-.27,2.8.11.75.37,1.54,1.37,1.6,2.15.04.56-1.06,1.67-1.72,1.73-2.44.2-4.91.07-7.37.07-.78,0-1.57,0-2.72,0v65.91h-32.51V26.36c-2.14,0-4.01.03-5.87,0-1.45-.03-3.07,0-3.04-2.09.03-2.21,1.7-2.19,3.25-2.11,5.69.3,5.61.3,7.23-5.12,2.83-9.46,9.99-13.86,19-16,1.75-.42,3.54-.69,5.32-1.03h7.15Z"/>
    <path class="cls-1" d="M127.55,157.38c-.59-.19-1.17-.41-1.77-.55-9.15-2.1-14.81-11.97-12.19-21.29,2.55-9.08,12.14-14.49,20.91-11.4,2.87,1.01,5.34,3.18,8.06,4.86.06-1.32.14-3,.22-4.79h3.63v31.99h-3.61c-.08-1.52-.17-3.06-.29-5.36-3.18,3.81-6.95,5.58-11.13,6.54h-3.82ZM130.05,127.2c-7.27-.02-12.98,5.66-13.04,12.96-.06,7.34,5.8,13.43,12.93,13.43,7.3,0,12.9-5.64,12.93-13.05.04-7.63-5.44-13.33-12.82-13.35"/>
    <path class="cls-1" d="M48.86,157.38c-1.13-.32-2.28-.61-3.4-.98-8.67-2.81-13.51-12.68-10.6-21.58,2.83-8.66,12.2-13.55,20.75-10.75,1.48.49,2.91,1.28,4.19,2.18,1.27.89,2.33,2.09,3.79,3.44v-5.46h3.76v32h-3.6v-5.56c-3.29,3.89-7.02,5.61-11.09,6.69h-3.82ZM51.15,127.2c-7.26-.03-12.94,5.6-13.07,12.94-.13,7.27,5.8,13.45,12.91,13.45,7.27,0,12.88-5.61,12.99-13.02.12-7.48-5.51-13.34-12.83-13.37"/>
    <path class="cls-1" d="M226.75,157.38c-1.13-.32-2.28-.61-3.4-.98-8.67-2.82-13.5-12.66-10.61-21.56,2.82-8.65,12.24-13.7,20.71-10.7,2.87,1.02,5.33,3.19,8.01,4.84v-4.73h3.86v31.98h-3.71v-5.46c-3.37,3.9-7.21,5.71-11.52,6.61h-3.34ZM228.9,127.2c-7.23.02-12.91,5.76-12.94,13.07-.03,7.3,5.92,13.38,13.05,13.32,7.25-.06,12.84-5.78,12.86-13.15.02-7.51-5.61-13.25-12.97-13.24"/>
    <path class="cls-1" d="M212.28,49.46c0-5.6.21-11.16-.06-16.7-.23-4.72-2.77-6.97-7.97-7.47-9.64-.93-18.32.91-24.98,8.73-2.52,2.96-4.93,3.25-6.69,1.3-1.64-1.8-.92-4.39,2.06-6.59,5.35-3.97,11.48-6.11,18.03-6.93,12.23-1.54,24.41-1.31,36.36,2.08,2.12.6,4.18,1.5,6.16,2.5,5.89,2.98,9.08,7.77,9.17,14.46.12,9.69.21,19.38.33,29.07.09,7.47-1.16,15.12,3.32,22.26h-35.4v-6.58c-1.2.7-1.99,1.15-2.76,1.62-7.43,4.55-15.32,7.11-24.2,6.28-15.61-1.47-26.38-16.62-21.83-30.99,2.41-7.61,8.18-12.01,15.24-14.68,10.07-3.8,20.21-3.48,30.19.66.88.36,1.76.73,2.64,1.08.06.02.15-.03.4-.09M212.45,67.64h.05c0-3.89.04-7.78-.04-11.67-.01-.68-.35-1.81-.8-1.96-3.87-1.33-7.73-2.85-11.72-3.57-3.09-.56-5.13,1.41-5.18,4.5-.17,9.28-.21,18.56-.11,27.83.03,3.12,1.45,4.25,4.56,4.17,5.05-.13,9.03-2.7,12.62-5.94.47-.43.57-1.43.59-2.17.06-3.73.03-7.46.03-11.19"/>
    <rect class="cls-1" x="1.46" y="5.34" width="38.56" height="86.76"/>
    <path class="cls-1" d="M127.42,93.66c-8.59-.08-16.68-1.95-23.89-6.83-.96-.65-2.04-1.45-2.51-2.44-.39-.82-.34-2.38.21-2.96.53-.56,1.97-.45,2.96-.31.62.09,1.18.76,1.72,1.21,5.89,4.96,12.75,7.32,20.37,7.37,1.47,0,3.42-.69,4.3-1.76,1.23-1.5.18-3.38-.99-4.74-3.05-3.56-6.21-7.01-9.29-10.55-5.1-5.87-10.26-11.7-15.21-17.7-2.6-3.15-4.38-6.84-4.69-11.01-.52-7.11,2.85-12.41,8.3-16.45,8.72-6.46,18.62-7.75,29-5.68,3.78.76,7.43,2.22,11.05,3.58,1.28.48,2.58,1.41,3.39,2.5.57.76.81,2.56.32,3.12-.62.7-2.27,1.04-3.23.74-1.46-.45-2.74-1.55-4.06-2.43-4.65-3.07-9.73-4.6-15.33-4.17-4.08.32-5.55,2.85-3.53,6.37,1.13,1.97,2.59,3.83,4.18,5.46,5.69,5.87,11.57,11.57,17.25,17.46,4.23,4.4,7.69,9.26,8.5,15.6.9,7.02-1.5,12.62-6.97,16.97-6.4,5.09-13.89,6.71-21.87,6.65"/>
    <path class="cls-1" d="M182.18,156.3h-4.02c0-.94,0-1.86,0-2.78,0-5.24,0-10.48-.03-15.73,0-1.34-.1-2.7-.32-4.03-.87-5.26-5.13-7.83-10.17-6.1-4.58,1.57-6.87,5.08-7.19,9.7-.36,5.3-.31,10.63-.43,15.94-.02.93,0,1.87,0,2.93h-3.68v-31.98h3.56c.07,1.54.15,3.08.25,5.31,3.16-3.99,6.66-6.44,11.36-6.26,4.84.19,8.23,2.58,9.89,7.62.78-1.02,1.32-1.75,1.88-2.45,2.74-3.45,6.27-5.37,10.72-5.17,5.83.26,9.7,3.96,10.1,10.58.44,7.35.1,14.74.1,22.29h-3.69c-.05-.89-.13-1.81-.14-2.73-.08-6.19-.16-12.39-.21-18.58-.06-7.88-7.76-9.1-12.29-6.43-3.9,2.3-5.32,5.99-5.47,10.23-.18,4.92-.14,9.84-.2,14.77,0,.86,0,1.72,0,2.84"/>
    <path class="cls-1" d="M4.24,136.18v20.03H.18c-.05-.86-.13-1.64-.13-2.41,0-12.8.04-25.59-.05-38.39-.01-2.14.53-2.93,2.78-2.79,4.59.28,9.21.17,13.81.45,6.32.39,10.51,4.79,10.68,10.93.17,6.11-3.57,10.64-9.84,11.4-4.24.51-8.54.52-13.19.78M4.4,116.63v15.46c4.33-.19,8.53-.11,12.65-.64,3.7-.48,5.87-3.62,5.79-7.32-.08-3.62-2.27-6.46-5.96-6.89-4.07-.47-8.2-.43-12.48-.62"/>
    <path class="cls-1" d="M105.58,156.25h-4.22c0-4.23.04-8.35-.01-12.46-.04-3.01.04-6.06-.35-9.03-.89-6.81-6.88-9.84-13.03-6.68-3.45,1.77-5.79,4.58-6.24,8.47-.42,3.61-.4,7.28-.49,10.93-.07,2.85-.01,5.7-.01,8.72h-3.93v-31.99h3.81c.07,1.67.15,3.36.26,5.85.96-1.19,1.43-1.9,2.02-2.49,3.31-3.25,7.24-4.77,11.91-4.11,4.74.67,8.75,3.89,9.2,8.66.74,7.94.75,15.95,1.08,24.12"/>
    <path class="cls-1" d="M237.24,109.38c-2.45,2.58-4.78,5.3-7.42,7.68-.89.81-2.55.77-3.86,1.12-.16-.23-.31-.46-.47-.69,2-2.77,3.71-5.85,6.14-8.18,1.03-.99,3.57-.39,5.42-.51.06.2.12.39.19.59"/>
  </g>
</svg>